<?xml version="1.0" encoding="utf-8"?>
<!-- Generator: Adobe Illustrator 13.0.0, SVG Export Plug-In . SVG Version: 6.00 Build 14948)  -->
<!DOCTYPE svg PUBLIC "-//W3C//DTD SVG 1.1//EN" "http://www.w3.org/Graphics/SVG/1.1/DTD/svg11.dtd">
<svg version="1.1" xmlns="http://www.w3.org/2000/svg" xmlns:xlink="http://www.w3.org/1999/xlink" x="0px" y="0px" width="595px"
	 height="595px" viewBox="0 0 595 595" enable-background="new 0 0 595 595" xml:space="preserve">
<g id="Слой_3">
	<path d="M500.23,12.339H92.42c-45.542,0-82.594,37.052-82.594,82.595v407.812c0,45.541,37.053,82.594,82.594,82.594h407.81
		c45.543,0,82.595-37.053,82.595-82.594V94.934C582.825,49.392,545.773,12.339,500.23,12.339z"/>
	
		<linearGradient id="SVGID_1_" gradientUnits="userSpaceOnUse" x1="295.4292" y1="-125.001" x2="295.4292" y2="-232.0049" gradientTransform="matrix(1 0 0 -1 0 342.0029)">
		<stop  offset="0" style="stop-color:#000000"/>
		<stop  offset="0.2467" style="stop-color:#040404"/>
		<stop  offset="0.5165" style="stop-color:#121212"/>
		<stop  offset="0.7817" style="stop-color:#262626"/>
		<stop  offset="0.9001" style="stop-color:#131313"/>
		<stop  offset="0.9949" style="stop-color:#000000"/>
	</linearGradient>
	<path fill="url(#SVGID_1_)" d="M292.773,467.004c-82.866,0-145.497,8.176-186.152,24.297
		c-41.693,16.535-47.919,36.873-47.919,47.523c0,8.902,4.063,17.527,11.44,24.285c7.674,7.027,17.742,10.898,28.35,10.898h395
		c20.867,0,38.571-15.52,38.663-33.889c0.054-10.729-6.176-31.246-48.503-48.111c-41.391-16.492-105.12-24.904-189.418-25.002
		L292.773,467.004L292.773,467.004z"/>
	<linearGradient id="SVGID_2_" gradientUnits="userSpaceOnUse" x1="295.4292" y1="328.0083" x2="295.4292" y2="21.0059">
		<stop  offset="0" style="stop-color:#000000"/>
		<stop  offset="0.156" style="stop-color:#040404"/>
		<stop  offset="0.327" style="stop-color:#121212"/>
		<stop  offset="0.505" style="stop-color:#282828"/>
		<stop  offset="0.6867" style="stop-color:#464646"/>
		<stop  offset="0.7817" style="stop-color:#595959"/>
		<stop  offset="0.8384" style="stop-color:#464646"/>
		<stop  offset="0.9534" style="stop-color:#141414"/>
		<stop  offset="0.9949" style="stop-color:#000000"/>
	</linearGradient>
	<path fill="url(#SVGID_2_)" d="M292.773,328.008c-82.866,0-145.497-23.837-186.152-70.847
		c-41.693-48.21-47.919-107.51-47.919-138.567c0-25.961,4.063-51.109,11.44-70.811c7.674-20.491,17.742-26.778,28.35-26.778h395
		c20.867,0,38.571,40.25,38.663,93.812c0.054,31.283-6.176,91.107-48.503,140.285c-41.391,48.087-105.12,72.616-189.418,72.904
		L292.773,328.008L292.773,328.008z"/>
</g>
<g id="plant">
	<g>
		<path fill="#29ABE2" d="M299.982,443.67c-0.021,0-0.039,0-0.059,0c-1.283-0.029-2.333-1.024-2.437-2.303
			c-3.718-47.183,6.764-87.672,31.149-120.35c24.188-32.407,60.787-55.44,108.777-68.459c0.218-0.059,0.438-0.088,0.655-0.088
			c1.034,0,1.99,0.645,2.354,1.66c0.438,1.229-0.142,2.59-1.331,3.124c-40.255,18.047-70.718,41.095-93.127,70.458
			c-23.557,30.862-37.787,68.078-43.505,113.769C302.305,442.733,301.239,443.67,299.982,443.67L299.982,443.67z"/>
		<path fill="#1A1A1A" d="M438.069,254.973c-78.495,35.193-126.388,92.667-138.088,186.198
			C292.58,347.26,343.113,280.729,438.069,254.973 M438.071,249.972c-0.434,0-0.874,0.057-1.311,0.175
			c-24.038,6.52-45.582,15.721-64.033,27.349c-18.447,11.624-33.955,25.764-46.093,42.028
			c-12.201,16.348-21.08,34.952-26.391,55.294c-5.355,20.517-7.121,42.973-5.247,66.747c0.201,2.557,2.306,4.547,4.87,4.605
			c0.039,0.001,0.077,0.001,0.116,0.001c2.515,0,4.646-1.872,4.959-4.38c11-87.928,53.951-145.841,135.173-182.256
			c2.381-1.068,3.541-3.787,2.662-6.245C442.052,251.259,440.136,249.972,438.071,249.972L438.071,249.972z"/>
	</g>
	<g>
		<path fill="#8CC63F" d="M314.144,442.046c-0.334,0-0.675-0.067-0.998-0.209c-1.166-0.509-1.763-1.813-1.39-3.028
			c8.869-28.761,22.252-50.985,40.916-67.944c17.53-15.929,39.321-26.81,66.611-33.258c0.191-0.046,0.384-0.067,0.574-0.067
			c1.063,0,2.038,0.681,2.379,1.732c0.401,1.241-0.22,2.58-1.423,3.079c-43.812,18.123-75.064,47.566-104.504,98.447
			C315.851,441.591,315.013,442.046,314.144,442.046L314.144,442.046z"/>
		<path fill="#1A1A1A" d="M419.856,340.039c-49.741,20.577-79.576,54.334-105.711,99.506
			C331.942,381.829,368.33,352.216,419.856,340.039 M419.859,335.038c-0.381,0-0.768,0.044-1.153,0.135
			c-27.713,6.549-49.863,17.619-67.716,33.841c-19.004,17.268-32.619,39.856-41.623,69.058c-0.749,2.43,0.446,5.036,2.777,6.055
			c0.648,0.283,1.328,0.419,1.999,0.419c1.736,0,3.41-0.908,4.33-2.497c29.141-50.367,60.032-79.493,103.294-97.39
			c2.408-0.996,3.647-3.675,2.848-6.156C423.937,336.4,421.984,335.038,419.859,335.038L419.859,335.038z"/>
	</g>
	<g>
		<path fill="#D9E021" d="M328.253,442.305c-0.597,0-1.192-0.211-1.667-0.638c-0.965-0.862-1.111-2.317-0.337-3.355
			c29.608-39.734,56.379-53.146,106.085-53.146c1.335,0,2.433,1.046,2.498,2.379c0.063,1.333-0.929,2.481-2.257,2.61
			c-45.278,4.385-68.249,19.424-102.617,51.478C329.479,442.081,328.866,442.305,328.253,442.305L328.253,442.305z"/>
		<path fill="#1A1A1A" d="M432.334,387.667c-47.221,4.571-70.446,20.768-104.082,52.138
			C357.667,400.333,384.334,387.667,432.334,387.667 M432.334,382.667c-25.899,0-44.783,3.635-61.23,11.787
			c-16.769,8.311-31.221,21.376-46.86,42.362c-1.547,2.075-1.254,4.986,0.673,6.713c0.95,0.851,2.144,1.275,3.336,1.275
			c1.226,0,2.451-0.449,3.41-1.344c34.614-32.282,56.319-46.477,101.153-50.817c2.655-0.257,4.642-2.553,4.513-5.218
			S435.002,382.667,432.334,382.667L432.334,382.667z"/>
	</g>
	<g>
		<path fill="#F15A24" d="M284.877,443.768c-0.111,0-0.226-0.006-0.339-0.022c-51.039-6.951-132.649-48.876-146.176-82.226
			c-3.277-8.077-2.542-15.231,2.186-21.262c3.977-5.076,9.489-7.65,16.38-7.65c34.27,0,97.881,65.712,129.926,107.134
			c0.62,0.802,0.694,1.9,0.188,2.78C286.59,443.301,285.763,443.768,284.877,443.768L284.877,443.768z"/>
		<path fill="#1A1A1A" d="M156.926,335.107c33.609-0.002,98.176,67.679,127.949,106.162c-62.55-8.52-166.801-68.283-142.361-99.471
			C146.144,337.167,151.065,335.107,156.926,335.107 M156.928,330.107c-0.001,0-0.001,0-0.002,0c-7.591,0-13.935,2.977-18.347,8.607
			c-5.245,6.692-6.121,14.903-2.535,23.744c6.447,15.893,28.274,34.919,59.883,52.2c29.811,16.298,62.811,28.098,88.273,31.565
			c0.226,0.031,0.452,0.046,0.676,0.046c1.768,0,3.427-0.938,4.328-2.499c1.015-1.758,0.867-3.955-0.375-5.561
			c-13.835-17.883-37.688-45.181-63.139-68.164C196.343,343.544,173.208,330.107,156.928,330.107L156.928,330.107z"/>
	</g>
	<g>
		<path fill="#F7931E" d="M284.719,372.269c-0.304,0-0.61-0.056-0.906-0.171c-41.556-16.184-101.771-68.037-106.414-98.889
			c-1.124-7.469,1.04-13.603,6.257-17.74c3.169-2.511,6.779-3.783,10.73-3.783c32.648,0,78.965,86.689,92.615,117.056
			c0.415,0.927,0.23,2.012-0.468,2.748C286.053,371.997,285.393,372.269,284.719,372.269L284.719,372.269z"/>
		<path fill="#1A1A1A" d="M194.388,254.186c28.256-0.009,72.202,75.246,90.333,115.582
			c-50.832-19.795-126.347-91.072-99.511-112.338C188.01,255.209,191.095,254.187,194.388,254.186 M194.393,249.186
			c-0.003,0-0.004,0-0.007,0h0c-4.53,0.001-8.663,1.457-12.282,4.325c-4.156,3.293-8.775,9.449-7.177,20.07
			c2.229,14.809,16.801,35.351,39.981,56.359c21.812,19.769,47.231,36.399,67.998,44.486c0.589,0.229,1.205,0.341,1.813,0.341
			c1.345,0,2.663-0.543,3.625-1.556c1.398-1.471,1.768-3.643,0.936-5.494c-8.594-19.118-24.099-48.532-41.841-73.747
			C226.531,264.254,208.683,249.187,194.393,249.186L194.393,249.186z"/>
	</g>
	<g>
		<path fill="#FBB03B" d="M302.348,319.535c-0.659,0-1.306-0.259-1.785-0.748c-28.396-28.888-58.956-94.304-51.301-121.62
			c1.874-6.683,6.003-11.009,11.944-12.51c1.357-0.344,2.718-0.517,4.047-0.517c13.502,0,24.032,17.17,31.297,51.031
			c6.129,28.564,8.299,61.952,8.297,81.863c0,1.015-0.613,1.93-1.553,2.314C302.986,319.476,302.665,319.535,302.348,319.535
			L302.348,319.535z"/>
		<path fill="#1A1A1A" d="M265.253,186.64c27.475-0.004,37.1,87.354,37.093,130.396c-34.687-35.288-70.641-122.346-40.529-129.955
			C262.991,186.784,264.138,186.64,265.253,186.64 M265.255,181.64c-0.002,0-0.002,0-0.003,0c-1.535,0-3.103,0.2-4.66,0.593
			c-4.783,1.209-11.049,4.664-13.738,14.259c-3.694,13.181,0.727,35.71,12.129,61.81c10.711,24.518,25.588,47.785,39.796,62.239
			c0.958,0.976,2.251,1.495,3.567,1.495c0.637,0,1.279-0.122,1.893-0.372c1.878-0.769,3.106-2.597,3.106-4.627
			c0.003-20.034-2.183-53.632-8.352-82.389c-3.277-15.274-7.297-27.405-11.95-36.056C280.995,187.344,273.663,181.64,265.255,181.64
			L265.255,181.64z"/>
	</g>
	<g>
		<path fill="#FCEE21" d="M337.932,273.36c-0.01,0-0.022,0-0.035,0c-1.016-0.015-1.919-0.64-2.291-1.585
			c-11.841-30.147-14.299-87.86-0.678-107.842c3.378-4.957,7.554-7.472,12.409-7.472c0.725,0,1.471,0.06,2.216,0.176
			c4.421,0.69,7.836,3.156,10.15,7.327c12.228,22.037-10.534,86.894-19.472,107.877C339.839,272.764,338.932,273.36,337.932,273.36
			L337.932,273.36z"/>
		<path fill="#1A1A1A" d="M347.338,158.961c0.596,0,1.203,0.048,1.829,0.146c25.319,3.956,3.247,77.756-11.234,111.755
			C323.375,233.801,323.82,158.968,347.338,158.961 M347.343,153.961c-0.003,0-0.005,0-0.007,0
			c-3.941,0.001-9.651,1.489-14.477,8.569c-14.384,21.111-11.747,79.187,0.42,110.159c0.742,1.889,2.553,3.143,4.582,3.171
			c0.024,0,0.048,0,0.071,0c2.002,0,3.814-1.195,4.601-3.041c9.715-22.809,32.131-87.047,19.355-110.071
			c-2.669-4.811-6.802-7.779-11.95-8.583C349.066,154.03,348.193,153.961,347.343,153.961L347.343,153.961z"/>
	</g>
	<g>
		<path fill="#FFFF00" d="M378.915,249.255c-0.4,0-0.803-0.096-1.171-0.291c-0.898-0.475-1.417-1.447-1.317-2.456
			c2.703-27.175,25.019-73.991,43.092-73.991c2.236,0,4.319,0.691,6.195,2.054c2.82,2.049,4.376,5.087,4.498,8.787
			c0.63,18.988-36.604,54.406-49.697,65.317C380.056,249.058,379.486,249.255,378.915,249.255L378.915,249.255z"/>
		<path fill="#1A1A1A" d="M419.52,175.018c1.66,0,3.245,0.5,4.726,1.576c15.418,11.204-24.217,52.568-45.33,70.162
			C381.633,219.442,403.883,175.02,419.52,175.018 M419.521,170.018c-0.001,0-0.001,0-0.002,0
			c-12.407,0.001-23.836,17.699-29.544,28.248c-8.51,15.728-14.654,34.119-16.035,47.996c-0.201,2.02,0.84,3.961,2.633,4.912
			c0.737,0.391,1.542,0.583,2.342,0.583c1.146,0,2.283-0.394,3.202-1.159c8.432-7.026,21.256-19.079,31.965-31.834
			c12.644-15.059,18.912-26.999,18.63-35.486c-0.148-4.499-2.061-8.208-5.526-10.728
			C424.873,170.869,422.294,170.018,419.521,170.018L419.521,170.018z"/>
	</g>
</g>
<g id="border">
	<path fill="#FBB03B" d="M495,0c55.229,0,100,44.771,100,100v395c0,55.229-44.771,100-100,100H100C44.771,595,0,550.229,0,495V100
		C0,44.771,44.771,0,100,0H495L495,0z M495,20H100c-44.112,0-80,35.888-80,80v395c0,44.112,35.888,80,80,80h395
		c44.112,0,80-35.888,80-80V100C575,55.888,539.112,20,495,20L495,20z"/>
	<path fill="none" stroke="#B2B2B2" stroke-width="3" d="M562,492.81c0,38.213-31.096,69.19-69.453,69.19H102.453
		C64.095,562,33,531.022,33,492.81V104.19C33,65.978,64.095,35,102.453,35h390.094C530.904,35,562,65.978,562,104.19V492.81z"/>
	<g>
		<polygon fill="#FFFFFF" points="504.581,80.146 407.275,81.309 504.318,82.24 467.084,104.115 506.5,84.16 507.575,187.893 
			508.77,84.334 545.743,129.714 510.515,82.676 583.441,81.542 511.562,80.582 549.465,58.037 509.206,78.487 508.041,6.607 
			506.675,78.138 477.266,44.016 		"/>
	</g>
</g>
</svg>
